Coordinates
version=1
nRows=24
nColumns=24
inDegrees=yes

Units are S.I. units (second, meters, Newtons, ...)
If the header above contains a line with 'inDegrees', this indicates whether rotational values are in degrees (yes) or radians (no).

endheader
time	pelvis_tilt	pelvis_list	pelvis_rotation	pelvis_tx	pelvis_ty	pelvis_tz	hip_flexion_r	hip_adduction_r	hip_rotation_r	knee_angle_r	ankle_angle_r	subtalar_angle_r	mtp_angle_r	hip_flexion_l	hip_adduction_l	hip_rotation_l	knee_angle_l	ankle_angle_l	subtalar_angle_l	mtp_angle_l	lumbar_extension	lumbar_bending	lumbar_rotation
1.950000	9.893233	1.945483	-179.703646	0.282783	0.571077	-1.219629	67.800322	-28.297939	-12.165671	-102.729800	40.374256	11.436201	0.000000	71.264656	-31.054000	-3.603707	-101.603455	39.443134	16.184654	0.000000	-10.708666	0.672091	3.391847
1.955000	9.889514	1.946322	-179.704394	0.282878	0.570996	-1.219709	67.804304	-28.289456	-12.157059	-102.732246	40.388897	11.458054	0.000000	71.278875	-31.071221	-3.603547	-101.607448	39.443780	16.199705	0.000000	-10.722413	0.671315	3.369535
1.960000	9.866537	1.923407	-179.675220	0.282970	0.570930	-1.219789	67.792825	-28.336781	-12.158513	-102.743350	40.405100	11.506295	0.000000	71.265455	-31.062903	-3.628449	-101.614146	39.430193	16.255637	0.000000	-10.753864	0.645777	3.319172
1.965000	9.858205	1.921706	-179.673389	0.283034	0.570890	-1.219872	67.794065	-28.349322	-12.171561	-102.759367	40.423780	11.529943	0.000000	71.268774	-31.087337	-3.652060	-101.576590	39.505840	16.281287	0.000000	-10.756795	0.649273	3.324919
1.970000	9.844912	1.918877	-179.680978	0.283085	0.570836	-1.219881	67.810905	-28.370271	-12.182858	-102.793255	40.419255	11.526322	0.000000	71.278311	-31.119328	-3.651893	-101.616060	39.502663	16.287688	0.000000	-10.771285	0.654824	3.328530
1.975000	9.834686	1.923211	-179.693005	0.283140	0.570774	-1.219895	67.822884	-28.384205	-12.199784	-102.818747	40.411098	11.529718	0.000000	71.283363	-31.148276	-3.665105	-101.617561	39.494682	16.292031	0.000000	-10.782259	0.665621	3.336296
1.980000	9.824277	1.919936	-179.699628	0.283204	0.570718	-1.219936	67.825340	-28.393137	-12.210361	-102.830821	40.404742	11.536285	0.000000	71.284922	-31.172873	-3.674839	-101.625271	39.486620	16.301176	0.000000	-10.788607	0.672584	3.338212
1.985000	9.812338	1.909401	-179.699244	0.283282	0.570678	-1.219995	67.823759	-28.404976	-12.216823	-102.837978	40.389455	11.553911	0.000000	71.272508	-31.183298	-3.680243	-101.660716	39.434520	16.372971	0.000000	-10.801508	0.661569	3.317007
1.990000	9.800070	1.896701	-179.680592	0.283339	0.570631	-1.220060	67.816021	-28.432855	-12.213123	-102.841963	40.402044	11.600820	0.000000	71.262843	-31.183788	-3.696829	-101.656043	39.454261	16.423994	0.000000	-10.810220	0.655730	3.270767
1.995000	9.790369	1.896390	-179.668723	0.283410	0.570582	-1.220141	67.808651	-28.454784	-12.235414	-102.848552	40.412593	11.615195	0.000000	71.275665	-31.207633	-3.719933	-101.612148	39.468248	16.426804	0.000000	-10.810619	0.653365	3.290404
2.000000	9.779868	1.891742	-179.670467	0.283455	0.570543	-1.220169	67.814305	-28.468821	-12.240906	-102.865397	40.415686	11.620791	0.000000	71.270858	-31.220448	-3.718299	-101.664996	39.455118	16.433384	0.000000	-10.814105	0.659312	3.291733
2.005000	9.768345	1.887096	-179.674412	0.283498	0.570529	-1.220205	67.819106	-28.486207	-12.252749	-102.882749	40.422613	11.626893	0.000000	71.267188	-31.246832	-3.734910	-101.673526	39.433096	16.450123	0.000000	-10.815510	0.673472	3.297984
2.010000	9.751104	1.871772	-179.669133	0.283552	0.570519	-1.220273	67.812735	-28.498883	-12.246980	-102.892821	40.439775	11.641346	0.000000	71.253029	-31.260079	-3.756242	-101.669736	39.382995	16.511185	0.000000	-10.823454	0.665074	3.300234
2.015000	9.749003	1.864856	-179.668598	0.283608	0.570484	-1.220351	67.814860	-28.508422	-12.261696	-102.894258	40.436586	11.643053	0.000000	71.251303	-31.279173	-3.778857	-101.669197	39.388082	16.518945	0.000000	-10.820743	0.665471	3.287012
2.020000	9.740991	1.841025	-179.670025	0.283645	0.570467	-1.220411	67.827741	-28.517123	-12.237784	-102.903155	40.439750	11.625969	0.000000	71.227634	-31.294601	-3.820377	-101.663872	39.405862	16.607777	0.000000	-10.819545	0.652161	3.270714
2.025000	9.730905	1.836956	-179.670371	0.283667	0.570437	-1.220445	67.831728	-28.529098	-12.246810	-102.920412	40.437381	11.624956	0.000000	71.225348	-31.309644	-3.829263	-101.673406	39.404156	16.609413	0.000000	-10.813791	0.657409	3.283123
2.030000	9.719744	1.835623	-179.677108	0.283696	0.570454	-1.220531	67.823696	-28.515445	-12.244048	-102.916273	40.443194	11.639004	0.000000	71.215403	-31.334816	-3.836306	-101.662136	39.389622	16.620923	0.000000	-10.819984	0.654648	3.281729
2.035000	9.707535	1.836350	-179.678062	0.283785	0.570518	-1.220661	67.803615	-28.493272	-12.208493	-102.914656	40.428289	11.809343	0.000000	71.198545	-31.356944	-3.845208	-101.640092	39.375282	16.660323	0.000000	-10.831445	0.646294	3.290147
2.040000	9.708747	1.828906	-179.662866	0.283885	0.570569	-1.220774	67.790562	-28.490400	-12.208384	-102.884542	40.441975	11.811902	0.000000	71.198329	-31.352447	-3.857229	-101.612991	39.374577	16.669061	0.000000	-10.824880	0.642572	3.285340
2.045000	9.697241	1.809752	-179.635580	0.283956	0.570628	-1.220865	67.772422	-28.515730	-12.216349	-102.876639	40.461107	11.816076	0.000000	71.182100	-31.342217	-3.884664	-101.597381	39.326735	16.716168	0.000000	-10.827472	0.631280	3.262439
2.050000	9.687187	1.787728	-179.617556	0.284011	0.570705	-1.220906	67.754699	-28.549856	-12.266906	-102.841281	40.501441	11.718082	0.000000	71.156436	-31.326317	-3.909576	-101.570972	39.311672	16.745191	0.000000	-10.825925	0.614239	3.260096
2.055000	9.678578	1.797912	-179.645203	0.284034	0.570821	-1.220935	67.741437	-28.514057	-12.283409	-102.825315	40.467217	11.662619	0.000000	71.132663	-31.364962	-3.917925	-101.550374	39.298456	16.752004	0.000000	-10.825456	0.639818	3.276997
2.060000	9.674082	1.795665	-179.648336	0.284052	0.570921	-1.220931	67.734874	-28.518177	-12.299096	-102.817165	40.469317	11.642505	0.000000	71.114093	-31.370708	-3.931822	-101.531658	39.300535	16.753523	0.000000	-10.815547	0.664409	3.285754
2.065000	9.656797	1.796082	-179.639072	0.284098	0.571113	-1.221002	67.683982	-28.505654	-12.318483	-102.772047	40.483580	11.599367	0.000000	71.078832	-31.369798	-3.944045	-101.492427	39.271868	16.769897	0.000000	-10.824287	0.669828	3.295152
